<svg xmlns="http://www.w3.org/2000/svg" width="256" height="256"><path fill="#FFF" fill-opacity=".016" fill-rule="evenodd" d="M0 128.004v128.004l128.25-.254 128.25-.254.254-127.75L257.008 0H0zm.485.496c0 70.4.119 99.053.265 63.672s.146-92.98 0-128S.485 58.1.485 128.5"/><path fill="#FFF" fill-opacity=".191" fill-rule="evenodd" d="M115.585 42.107c-13.469 1.964-24.312 5.897-33.376 12.106-4.52 3.096-15.206 15.525-23.858 27.747l-5.149 7.274-6.482-6.03c-11.44-10.642-16.395-11.765-22.958-5.201-3.409 3.409-3.81 4.234-2.705 5.566 2.23 2.687 6.665 4.433 12.922 5.087 3.316.346 6.771 1.172 7.678 1.835 1.359.994.279 1.33-6.157 1.913-12.027 1.09-13.507 1.563-15.616 4.992-5.391 8.767-6.017 16.916-5.26 68.431.675 45.909.701 46.34 2.827 47.733 3.323 2.177 223.903 2.213 224.361.036.49-2.324-4.3-2.726-28.627-2.397l-22.316.301.727-3.5c.933-4.499.501-70.256-.469-71.253-.403-.413-5.566-.456-11.474-.095l-10.743.657.295 37.346.295 37.346-27.5-.002c-15.125-.002-39.88-.297-55.012-.656l-27.511-.653.362-7.177.363-7.176-14.014.082c-13.209.076-16.529-.411-14.772-2.169.412-.412 28.847-.975 63.189-1.25l62.439-.5-6.666-8.75-6.666-8.75h-6.783c-8.848 0-21.278-1.756-26.106-3.687-4.01-1.605-8.823-6.454-8.823-8.89 0-1.177 3.03-1.423 17.5-1.423 14.457 0 17.5-.247 17.5-1.421 0-.782-.879-5.169-1.954-9.75-2.662-11.345-4.407-28.868-3.71-37.247.367-4.41 1.485-8.757 3.084-11.986 1.525-3.083 2.148-5.428 1.588-5.988-.895-.895-63.526.825-72.887 2.002l-4.378.551.687-2.83c2.059-8.476 16.218-25.284 27.768-32.962 4.064-2.702 11.126-6.115 16.416-7.933C112.226 50.476 123 44.073 123 41.915c0-.503-.338-.86-.75-.793s-3.412.51-6.665.985M168 42.54c-6.258 1.746-15.718 7.106-17.119 9.7-.683 1.263-.247 3.043 1.589 6.492 3.025 5.681 3.047 5.921.673 7.192-3.193 1.708-9.015-.516-9.735-3.719-1.787-7.949-2.579-10.049-4.411-11.708-2.463-2.228-7.734-2.189-12.237.093-10.692 5.416-8.691 11.131 5.24 14.966 9.053 2.493 14.5 4.922 14.5 6.467 0 1.178-7.464 5.022-17.883 9.211-.485.195-.551 1.4-.145 2.678.779 2.454.799 2.455 11.09.498 3.015-.573 3.088-.488 4.75 5.489 2.182 7.849 2.147 8.402-.753 11.849-3.701 4.398-4.936 10.953-4.259 22.606.942 16.188 4.832 31.85 10.949 44.083 4.662 9.324 11.345 17.563 14.245 17.563.182 0 .588-7.087.902-15.75s.846-20.363 1.181-26l.61-10.25h26.684l.559 10.75c.307 5.912.817 17.275 1.133 25.25s.916 14.85 1.334 15.279c2.4 2.458 12.68-12.022 18.011-25.371 3.441-8.615 5.792-21.55 6.708-36.908.717-12.022-.346-17.458-4.105-20.989-1.381-1.298-2.511-3.105-2.511-4.017C215 95.987 219.006 83 219.625 83c.242 0 2.055.675 4.029 1.5 1.975.825 4.915 1.5 6.535 1.5 2.588 0 2.906-.316 2.627-2.612-.265-2.187-1.308-2.983-6.424-4.9C218.446 75.509 214 73.182 214 72c0-1.502 4.818-3.595 13.903-6.04 5.514-1.484 9.468-3.214 11.5-5.032l3.097-2.771-2.057-2.76c-2.634-3.535-8.916-6.797-13.09-6.797-4.519 0-7.07 2.718-8.353 8.9-1.277 6.154-3.569 8.63-8.184 8.845-2.907.136-3.354-.179-3.628-2.551-.186-1.613.561-3.888 1.849-5.63 2.513-3.399 1.892-5.363-2.999-9.478-7.664-6.45-26.212-9.446-38.038-6.146m-14.833 36.126c-1.212 2.166-.043 6.108 3.909 13.176 9.894 17.7 20.362 24.603 29.86 19.691 7.118-3.681 19.448-21.322 21.498-30.761.499-2.297.205-2.825-1.867-3.345-3.996-1.003-9.271 1.406-15.359 7.014-3.139 2.892-6.691 5.776-7.893 6.409-3.108 1.637-6.706.016-12.836-5.781-8.08-7.642-15.154-10.258-17.312-6.403M29.99 114.455c1.634 7.245 5.126 9.06 25.01 13.003 14.426 2.86 33.118 5.758 33.657 5.218.298-.298-7.687-7.083-22.657-19.254-.969-.787-7.759-1.474-19.171-1.939l-17.672-.72z"/><path fill="#FFF" fill-opacity=".281" fill-rule="evenodd" d="M107.715 43.993c-9.554 2.013-19.28 6.134-26.187 11.094-4.442 3.191-14.214 14.784-22.896 27.163-2.603 3.713-4.979 6.75-5.279 6.75-.301 0-3.447-2.658-6.992-5.906-7.884-7.224-12.343-9.508-16.898-8.653-3.358.63-8.463 5.468-8.463 8.021 0 2.302 5.01 4.691 11.852 5.65 3.656.513 7.436 1.177 8.398 1.477 3.209 1 1.805 2.217-3.25 2.817l-9.901 1.174c-5.877.696-8.196 2.895-10.46 9.92-3.197 9.923-3.895 20.052-3.17 46 .385 13.75.652 33.114.594 43.031-.082 14.241.198 18.444 1.336 20 1.417 1.938 3.171 1.969 113.02 1.969 73.554 0 111.666-.341 111.831-1 .16-.642-8.929-1.095-25.391-1.267l-25.641-.266.867-3.734c.477-2.053.878-18.92.891-37.483L192 137h-23.072l.286 35.75c.157 19.662.672 36.537 1.143 37.5.811 1.656-2.155 1.75-55.25 1.75H59v-14.845l-13.42-.328c-13.161-.321-15.925-.882-13.97-2.837.608-.608 24.383-1.073 63.112-1.233 55.11-.228 61.992-.427 60.868-1.757-.697-.825-3.785-4.701-6.862-8.612l-5.594-7.113-12.317-.543c-6.976-.307-14.57-1.244-17.513-2.16-5.648-1.758-11.304-6.586-11.304-9.649 0-1.824.9-1.923 17.5-1.923 9.625 0 17.497-.338 17.493-.75s-.902-4.484-1.996-9.048c-2.834-11.822-4.296-25.821-3.824-36.623.335-7.655.887-10.242 3.091-14.49 2.067-3.985 2.375-5.29 1.341-5.687-.738-.283-17.643.185-37.567 1.041C78.114 96.3 61.18 97 60.407 97c-5.9 0 7.345-20.099 20.83-31.609 6.196-5.289 16.107-10.534 25.121-13.293 4.274-1.309 8.75-3.606 11.88-6.099L123.261 42l-3.38.07c-1.86.039-7.334.904-12.166 1.923M29.372 114.25c1.099 5.736 6.084 9.215 16.708 11.661 10.769 2.48 37.27 7.084 40.792 7.087 2.086.002 2.208-.196 1.012-1.638-1.936-2.333-20.952-17.832-23.568-19.21-1.394-.734-8.227-1.15-18.875-1.15H28.75z"/><path fill="#FFF" fill-opacity=".623" fill-rule="evenodd" d="M111.607 43.605c-22.598 4.081-33.408 11.557-49.093 33.952C56.871 85.613 53.996 89 52.8 89c-.468 0-3.697-2.648-7.177-5.885-7.604-7.074-9.761-8.315-14.458-8.315-2.877 0-4.281.75-7.041 3.762l-3.448 3.762 2.643 2.274c1.56 1.342 4.597 2.523 7.412 2.882 9.526 1.214 11.089 1.598 12.257 3.005 1.393 1.679.818 1.842-11.74 3.309-4.539.531-8.925 1.523-9.747 2.205-2.496 2.071-5.429 13.527-6.551 25.585-.764 8.211-.743 17.095.073 31.665.625 11.138.987 28.669.806 38.958-.297 16.886-.155 18.881 1.457 20.5 1.695 1.703 7.368 1.793 112.5 1.793 72.809 0 110.885-.342 111.214-1 .325-.65-8.506-1.093-25.259-1.267l-25.759-.267.759-4.233c.805-4.488.89-12.734.501-48.483L191 137h-21.091l.295 37.501.296 37.5h-55.75L59 212v-14.941l-12.958.044c-7.126.024-13.691-.367-14.589-.869-1.502-.841-1.497-1.047.059-2.603s6.55-1.668 62.999-1.41c44.446.202 61.128-.024 60.649-.823-.363-.606-3.13-4.318-6.15-8.25L143.521 176l-5.011-.008c-7.064-.01-20.725-1.677-25.516-3.112-4.643-1.391-10.56-6.341-11.484-9.607l-.63-2.227 17.893-.273 17.893-.273-2.248-9.826c-5.031-21.986-5.189-41.745-.407-50.92 1.145-2.197 1.83-4.246 1.522-4.554-.308-.309-17.671.029-38.584.749-20.912.721-38.302 1.031-38.643.69-1.407-1.407 6.926-15.514 13.238-22.41 10.311-11.263 20.649-18.036 34.027-22.291C111.056 50.194 122 43.77 122 42.295c0-.462-1.918-.221-10.393 1.31m-82.603 69.371c.005 3.74 3.298 8.465 7.182 10.308 4.138 1.963 17.095 4.905 33.314 7.563 18.325 3.003 20.5 3.247 20.5 2.3 0-.923-19.715-17.664-24-20.38-1.964-1.245-6.197-1.663-19.75-1.95L29 110.451z"/></svg>